<svg xmlns="http://www.w3.org/2000/svg" version="1.1" xmlns:xlink="http://www.w3.org/1999/xlink" xmlns:svgjs="http://svgjs.com/svgjs" width="1440" height="560" preserveAspectRatio="none" viewBox="0 0 1440 560"><g mask="url(&quot;#SvgjsMask1094&quot;)" fill="none"><path d="M 0,44 C 48,55.6 144,101.4 240,102 C 336,102.6 384,50.8 480,47 C 576,43.2 624,90.6 720,83 C 816,75.4 864,5.6 960,9 C 1056,12.4 1104,92.2 1200,100 C 1296,107.8 1392,58.4 1440,48L1440 560L0 560z" fill="rgba(224, 186, 156, 1)"></path><path d="M 0,274 C 41.2,247.8 123.6,152 206,143 C 288.4,134 329.6,223 412,229 C 494.4,235 535.6,170 618,173 C 700.4,176 741.6,245.6 824,244 C 906.4,242.4 947.6,159.6 1030,165 C 1112.4,170.4 1154,271.6 1236,271 C 1318,270.4 1399.2,183.8 1440,162L1440 560L0 560z" fill="rgba(207, 153, 127, 1)"></path><path d="M 0,368 C 36,361.8 108,326.8 180,337 C 252,347.2 288,427.6 360,419 C 432,410.4 468,300 540,294 C 612,288 648,379.2 720,389 C 792,398.8 828,338.4 900,343 C 972,347.6 1008,417 1080,412 C 1152,407 1188,317.6 1260,318 C 1332,318.4 1404,394.8 1440,414L1440 560L0 560z" fill="rgba(189, 120, 103, 1)"></path><path d="M 0,446 C 32,460.8 96,520.6 160,520 C 224,519.4 256,438.6 320,443 C 384,447.4 416,534.4 480,542 C 544,549.6 576,478.8 640,481 C 704,483.2 736,556.4 800,553 C 864,549.6 896,466 960,464 C 1024,462 1056,545.6 1120,543 C 1184,540.4 1216,451.8 1280,451 C 1344,450.2 1408,521.4 1440,539L1440 560L0 560z" fill="rgba(170, 86, 86, 1)"></path></g><defs><mask id="SvgjsMask1094"><rect width="1440" height="560" fill="#ffffff"></rect></mask></defs></svg>