<svg xmlns="http://www.w3.org/2000/svg" version="1.1" xmlns:xlink="http://www.w3.org/1999/xlink" xmlns:svgjs="http://svgjs.com/svgjs" width="1440" height="560" preserveAspectRatio="none" viewBox="0 0 1440 560"><g mask="url(&quot;#SvgjsMask1086&quot;)" fill="none"><path d="M 0,118 C 48,98.2 144,25.2 240,19 C 336,12.8 384,82 480,87 C 576,92 624,41.6 720,44 C 816,46.4 864,102.2 960,99 C 1056,95.8 1104,21.8 1200,28 C 1296,34.2 1392,109.6 1440,130L1440 560L0 560z" fill="rgba(224, 186, 156, 1)"></path><path d="M 0,191 C 41.2,196 123.6,212.6 206,216 C 288.4,219.4 329.6,199 412,208 C 494.4,217 535.6,260.8 618,261 C 700.4,261.2 741.6,216 824,209 C 906.4,202 947.6,229.8 1030,226 C 1112.4,222.2 1154,183.8 1236,190 C 1318,196.2 1399.2,243.6 1440,257L1440 560L0 560z" fill="rgba(207, 153, 127, 1)"></path><path d="M 0,345 C 36,346.2 108,355.8 180,351 C 252,346.2 288,316.2 360,321 C 432,325.8 468,378.6 540,375 C 612,371.4 648,305 720,303 C 792,301 828,356.4 900,365 C 972,373.6 1008,341 1080,346 C 1152,351 1188,402.2 1260,390 C 1332,377.8 1404,306 1440,285L1440 560L0 560z" fill="rgba(189, 120, 103, 1)"></path><path d="M 0,549 C 32,526.6 96,445.6 160,437 C 224,428.4 256,502 320,506 C 384,510 416,448 480,457 C 544,466 576,549 640,551 C 704,553 736,475.4 800,467 C 864,458.6 896,507 960,509 C 1024,511 1056,478.6 1120,477 C 1184,475.4 1216,507.8 1280,501 C 1344,494.2 1408,454.6 1440,443L1440 560L0 560z" fill="rgba(170, 86, 86, 1)"></path></g><defs><mask id="SvgjsMask1086"><rect width="1440" height="560" fill="#ffffff"></rect></mask></defs></svg>