<svg id="visual" viewBox="0 0 900 600" width="900" height="600" xmlns="http://www.w3.org/2000/svg" xmlns:xlink="http://www.w3.org/1999/xlink" version="1.1"><path d="M0 414L21.5 403.7C43 393.3 86 372.7 128.8 372.7C171.7 372.7 214.3 393.3 257.2 397.2C300 401 343 388 385.8 392.3C428.7 396.7 471.3 418.3 514.2 429.5C557 440.7 600 441.3 642.8 439.5C685.7 437.7 728.3 433.3 771.2 428.7C814 424 857 419 878.5 416.5L900 414L900 601L878.5 601C857 601 814 601 771.2 601C728.3 601 685.7 601 642.8 601C600 601 557 601 514.2 601C471.3 601 428.7 601 385.8 601C343 601 300 601 257.2 601C214.3 601 171.7 601 128.8 601C86 601 43 601 21.5 601L0 601Z" fill="#f1dbbf"></path><path d="M0 414L21.5 413.5C43 413 86 412 128.8 415.3C171.7 418.7 214.3 426.3 257.2 435.8C300 445.3 343 456.7 385.8 461.2C428.7 465.7 471.3 463.3 514.2 457.3C557 451.3 600 441.7 642.8 432.5C685.7 423.3 728.3 414.7 771.2 410.3C814 406 857 406 878.5 406L900 406L900 601L878.5 601C857 601 814 601 771.2 601C728.3 601 685.7 601 642.8 601C600 601 557 601 514.2 601C471.3 601 428.7 601 385.8 601C343 601 300 601 257.2 601C214.3 601 171.7 601 128.8 601C86 601 43 601 21.5 601L0 601Z" fill="#e0ba9c"></path><path d="M0 464L21.5 467.8C43 471.7 86 479.3 128.8 484C171.7 488.7 214.3 490.3 257.2 483.5C300 476.7 343 461.3 385.8 453.3C428.7 445.3 471.3 444.7 514.2 446.2C557 447.7 600 451.3 642.8 454.5C685.7 457.7 728.3 460.3 771.2 463.5C814 466.7 857 470.3 878.5 472.2L900 474L900 601L878.5 601C857 601 814 601 771.2 601C728.3 601 685.7 601 642.8 601C600 601 557 601 514.2 601C471.3 601 428.7 601 385.8 601C343 601 300 601 257.2 601C214.3 601 171.7 601 128.8 601C86 601 43 601 21.5 601L0 601Z" fill="#cf997f"></path><path d="M0 521L21.5 524.5C43 528 86 535 128.8 530.7C171.7 526.3 214.3 510.7 257.2 506.8C300 503 343 511 385.8 513.5C428.7 516 471.3 513 514.2 513.3C557 513.7 600 517.3 642.8 513.3C685.7 509.3 728.3 497.7 771.2 492.3C814 487 857 488 878.5 488.5L900 489L900 601L878.5 601C857 601 814 601 771.2 601C728.3 601 685.7 601 642.8 601C600 601 557 601 514.2 601C471.3 601 428.7 601 385.8 601C343 601 300 601 257.2 601C214.3 601 171.7 601 128.8 601C86 601 43 601 21.5 601L0 601Z" fill="#bd7867"></path><path d="M0 533L21.5 534.8C43 536.7 86 540.3 128.8 544.8C171.7 549.3 214.3 554.7 257.2 552.7C300 550.7 343 541.3 385.8 536.3C428.7 531.3 471.3 530.7 514.2 536.5C557 542.3 600 554.7 642.8 556.8C685.7 559 728.3 551 771.2 546.3C814 541.7 857 540.3 878.5 539.7L900 539L900 601L878.5 601C857 601 814 601 771.2 601C728.3 601 685.7 601 642.8 601C600 601 557 601 514.2 601C471.3 601 428.7 601 385.8 601C343 601 300 601 257.2 601C214.3 601 171.7 601 128.8 601C86 601 43 601 21.5 601L0 601Z" fill="#aa5656"></path></svg>